<svg xmlns="http://www.w3.org/2000/svg" viewBox="0 0 132 149"><defs><style>.cls-1{fill:#016241;}.cls-2{fill:#fed200;}.cls-3{fill:#c3d216;}</style></defs><title>Asset 1</title><g id="Layer_2" data-name="Layer 2"><g id="Layer_2-2" data-name="Layer 2"><path class="cls-1" d="M130,107s-5-3-25-3-36,16-42,20-17,9-33,9a85.51,85.51,0,0,1-30-6v22H130Z"/><path class="cls-2" d="M59.57,0A73.6,73.6,0,0,0,59,9c0,1.47.06,2.93.14,4.38A34,34,0,0,0,61,18a129.61,129.61,0,0,0,7,12,9.34,9.34,0,0,0-6.25-1.16A72.79,72.79,0,0,0,77.12,57.12a35.23,35.23,0,0,0,4.68,3.25,129.6,129.6,0,0,0,12.51,6.05,9.31,9.31,0,0,0-5,1.8A72.65,72.65,0,0,0,130,82V0Z"/><path class="cls-3" d="M0,111H75.54C83,106.32,93.82,101,105,101c20,0,25,3,25,3V94H0Z"/><path class="cls-3" d="M0,123s16,7,30,7,29-6,36-12a76.52,76.52,0,0,1,8-6H0Z"/><path class="cls-3" d="M0,39.5v15H71.12a75.93,75.93,0,0,1-8.73-15Z"/><path class="cls-3" d="M0,76V92H130V85c.67,0,1.33.05,2,.05a75.65,75.65,0,0,1-35.89-9Z"/><path class="cls-3" d="M56.55,0H0V17.5H56.49A76.74,76.74,0,0,1,56,9,76.66,76.66,0,0,1,56.55,0Z"/><path class="cls-3" d="M92.6,74c1.15.7,2.32,1.36,3.51,2h0C94.92,75.36,93.75,74.7,92.6,74Z"/><path class="cls-3" d="M61.15,36.5h0c.39,1,.8,2,1.24,3h0C62,38.51,61.54,37.51,61.15,36.5Z"/><path class="cls-3" d="M56.49,17.5q.22,2,.56,4-.33-2-.56-4Z"/><path class="cls-3" d="M71.12,54.5q1.15,1.53,2.37,3-1.22-1.47-2.37-3Z"/><path class="cls-3" d="M55,33s1-2.9,1.94-11.5H0v15H61.15c-.85-2.2-1.59-4.44-2.24-6.73A10.69,10.69,0,0,0,55,33Z"/><path class="cls-3" d="M80.16,65.09c-.19-.36-.38-.72-.58-1.07a76.62,76.62,0,0,1-6.09-6.51H0V74H84.4C83.69,72.26,82.41,69.4,80.16,65.09Z"/><path class="cls-3" d="M85.53,74H92.6q-2.77-1.68-5.38-3.59A11,11,0,0,0,85.53,74Z"/></g></g></svg>